HIERARCHY
ROOT pelvis
{
  OFFSET 0 100 0
  CHANNELS 6 Xposition Yposition Zposition Zrotation Xrotation Yrotation
  JOINT pelvis_right_femur
  {
    OFFSET -10.78128 -3.44521 -0.5502486
    CHANNELS 3 Zrotation Xrotation Yrotation
    JOINT right_femur_tibia
    {
      OFFSET -0.8047443 -44.0398 -0.1307829
      CHANNELS 3 Zrotation Xrotation Yrotation
      JOINT right_tibia_foot
      {
        OFFSET 3.006224 -47.83518 -5
        CHANNELS 3 Zrotation Xrotation Yrotation
        End Site
        {
          OFFSET 0 -5 15
        }
      }
    }
  }
  JOINT pelvis_left_femur
  {
    OFFSET 10.78128 -3.44521 -0.5502486
    CHANNELS 3 Zrotation Xrotation Yrotation
    JOINT left_femur_tibia
    {
      OFFSET 0.8047443 -44.0398 -0.1307829
      CHANNELS 3 Zrotation Xrotation Yrotation
      JOINT left_tibia_foot
      {
        OFFSET -4.370144 -48.10324 -4.275266
        CHANNELS 3 Zrotation Xrotation Yrotation
        End Site
        {
          OFFSET 0 -5 15
        }
      }
    }
  }
  JOINT pelvis_spine1
  {
    OFFSET 0 6.468898 -3.129235
    CHANNELS 3 Zrotation Xrotation Yrotation
    JOINT spine1
    {
      OFFSET 0 23.15396 4.99043
      CHANNELS 3 Zrotation Xrotation Yrotation
      JOINT spine2
      {
        OFFSET 0 20.79997 -5.064912
        CHANNELS 3 Zrotation Xrotation Yrotation
        JOINT neck
        {
          OFFSET 0 14.38658 9.616178
          CHANNELS 3 Zrotation Xrotation Yrotation
          End Site
          {
            OFFSET 0 20 0
          }
        }
      }
      JOINT right_manubrium
      {
        OFFSET -5.722621 16.35077 3.967754
        CHANNELS 3 Zrotation Xrotation Yrotation
        JOINT right_clavicle
        {
          OFFSET -13.16364 1.694482 -4.693211
          CHANNELS 3 Zrotation Xrotation Yrotation
          JOINT right_humerus
          {
            OFFSET -28.5034 -0.3100689 -2.792744
            CHANNELS 3 Zrotation Xrotation Yrotation
            JOINT right_radius
            {
              OFFSET -25.15693 0.02248979 -1.271978
              CHANNELS 3 Zrotation Xrotation Yrotation
              End Site
              {
                OFFSET -15 0 0
              }
            }
          }
        }
      }
      JOINT left_manubrium
      {
        OFFSET 5.722621 16.35077 3.967754
        CHANNELS 3 Zrotation Xrotation Yrotation
        JOINT left_clavicle
        {
          OFFSET 13.16364 1.694482 -4.693211
          CHANNELS 3 Zrotation Xrotation Yrotation
          JOINT left_humerus
          {
            OFFSET 29.39168 -1.063119 -2.237045
            CHANNELS 3 Zrotation Xrotation Yrotation
            JOINT left_radius
            {
              OFFSET 24.59957 -0.9528479 0.9047498
              CHANNELS 3 Zrotation Xrotation Yrotation
              End Site
              {
                OFFSET 15 -0 -0
              }
            }
          }
        }
      }
    }
  }
}
MOTION
Frames: 21
Frame Time: 0.0416666666667
0 103.5113 0 0.7125067 -0.8843519 0.7169772 1.886464 -22.18715 4.764032 -0 33.58572 -0 -2.820541 -8.001857 -4.138934 -6.286701 11.80141 -17.11458 0 -1.087281 0 2.437851 -21.51843 20.01216 -3.816525 -1.011805 3.062316 2.227323 8.023209 -7.566912 1.241076 21.79507 7.25209 3.045733 -22.43778 8.898799 4.983508 -17.44527 10.59898 85.44019 32.96186 -17.81961 -0 0 14.31968 -12.62456 9.155641 7.982583 6.01915 -19.05693 -2.479569 -89.24765 28.08136 16.10329 0 0 -19.06188 2.486932 12.21085 10.82148
0.4900105 102.799 3.610265 0.741956 -0.8071184 1.426535 1.870547 -22.13253 4.899657 -0 33.8478 -0 -2.684445 -8.218835 -4.163041 -6.317073 11.70128 -17.21179 0 -1.199273 0 2.381187 -21.55582 20.05902 -3.862347 -0.9818379 3.084495 2.235756 7.945236 -7.551018 1.239158 21.78638 7.272162 3.062288 -22.42505 8.908458 5.110348 -17.39246 10.5865 85.24865 33.19018 -17.70586 -0 0 14.43136 -12.50493 9.13628 7.953262 6.003375 -18.93103 -2.407356 -89.3171 28.26641 16.15837 0 0 -18.96587 2.301298 12.1131 11.05304
0.8682909 101.9151 7.098101 0.334357 -0.09911106 1.963138 2.887765 -25.3753 4.698365 -0 27.33561 -0 -3.893204 -9.043498 -3.967611 -5.811799 13.40955 -17.20372 0 -0.06003278 0 3.009636 -21.74048 19.76094 -3.465771 -1.226571 2.915622 2.68207 8.200828 -8.099431 1.144718 21.54352 7.251564 3.053576 -23.17768 8.922195 4.835012 -17.57529 10.76738 86.33209 33.26191 -19.46129 -0 0 13.48653 -11.74155 9.40288 7.373453 6.32733 -20.1244 -2.5433 -88.80329 27.49143 15.45143 0 0 -21.14302 3.805377 12.98136 9.199523
1.16675 100.8575 10.50527 0.04209847 0.3034553 2.400167 3.554407 -27.53039 4.447673 -0 22.83642 -0 -4.83616 -9.384026 -3.796598 -5.453465 14.59628 -17.13979 -0 0.5319173 -0 3.544579 -21.85703 19.56553 -3.167601 -1.429529 2.786177 2.965537 8.44728 -8.472948 1.081363 21.38982 7.220516 3.029731 -23.70277 8.927278 4.51768 -17.79116 10.89875 87.2133 33.05826 -20.67857 -0 0 12.80784 -11.36465 9.58882 7.038779 6.558798 -21.03193 -2.69944 -88.44757 26.78485 15.01038 0 0 -22.62984 5.022807 13.64512 7.708966
1.381193 99.71905 13.92404 -0.1905342 0.5010932 2.737986 4.150895 -29.18358 4.290725 -0 19.1109 -0 -5.543906 -9.503732 -3.772525 -5.148822 15.5683 -16.88553 -0 2.377051 -0 3.642069 -21.7299 19.17713 -2.878442 -1.539974 2.68671 3.182692 8.662726 -8.76711 1.051892 21.294 7.163866 3.005493 -24.00246 8.888472 4.254132 -17.80165 11.00164 88.01968 32.77515 -21.77778 -0 0 12.03327 -11.13975 9.773228 6.734901 6.708064 -21.77328 -2.856121 -88.01678 26.18095 14.39509 0 0 -23.93014 5.93816 14.01633 6.585401
1.522303 98.56806 17.4409 -0.349082 0.4554601 2.992542 4.598326 -30.23147 4.111706 -0 16.3953 -0 -6.063901 -9.253788 -3.837789 -4.919024 16.30671 -16.45084 -0 4.948346 -0 3.440916 -21.41075 18.67049 -2.608235 -1.586233 2.607287 3.306642 8.881967 -8.965304 1.054545 21.26556 7.081825 2.971589 -24.09116 8.815434 3.97299 -17.69615 11.07581 88.77627 32.29063 -22.68302 -0 0 11.22264 -11.16484 9.942743 6.529555 6.780986 -22.36675 -3.047091 -87.55266 25.6029 13.70916 0 0 -24.94963 6.61902 14.18218 5.743126
1.599079 97.48686 21.14687 -0.4304839 0.18613 3.176204 4.926664 -30.68714 3.965739 -0 14.64309 -0 -6.346572 -8.717731 -4.021887 -4.762703 16.79535 -15.82731 -0 8.528175 -0 2.85899 -20.8615 18.01574 -2.357661 -1.547411 2.556031 3.346524 9.079982 -9.068388 1.091494 21.30142 6.975317 2.934456 -23.95094 8.703071 3.723971 -17.41914 11.12054 89.44168 31.69194 -23.40699 -0 0 10.35941 -11.38874 10.10314 6.391715 6.769351 -22.78102 -3.250899 -87.04162 25.10935 12.90481 0 0 -25.71082 6.982936 14.09925 5.277798
1.621923 96.55487 25.12634 -0.437784 -0.2918981 3.300888 5.145968 -30.54734 3.853446 -0 13.78513 -0 -6.396696 -7.936501 -4.317924 -4.671581 17.00765 -15.01949 -0 13.08011 -0 1.91885 -20.07406 17.23483 -2.124986 -1.425883 2.537013 3.305921 9.256154 -9.077497 1.161228 21.39688 6.84376 2.894785 -23.59198 8.551968 3.50987 -16.98281 11.1392 90.00547 30.99902 -23.94416 -0 0 9.462253 -11.79906 10.25725 6.320724 6.675881 -23.01733 -3.462971 -86.49558 24.69896 12.00258 0 0 -26.21641 7.032699 13.78156 5.184501
1.600388 95.856 29.45884 -0.3734642 -0.9623126 3.375229 5.278025 -29.77173 3.807969 -0 13.7466 -0 -6.193259 -6.992553 -4.735307 -4.631137 16.87368 -14.02457 -0 18.69874 -0 0.6031899 -19.0116 16.3425 -1.90881 -1.213649 2.562624 3.189293 9.39914 -8.98932 1.26393 21.5469 6.684728 2.855293 -23.01136 8.358538 3.353542 -16.3798 11.13404 90.43411 30.26288 -24.28125 -0 0 8.555434 -12.37005 10.41019 6.30871 6.497518 -23.05635 -3.66723 -85.92585 24.39656 11.01485 0 0 -26.46139 6.736375 13.21001 5.501668
1.543571 95.47896 34.22047 -0.2399365 -1.819661 3.403086 5.34062 -28.25105 3.858082 -0 14.44668 -0 -5.716559 -5.973511 -5.279975 -4.615307 16.26357 -12.82639 -0 25.49257 -0 -1.10414 -17.61274 15.36514 -1.704849 -0.9024798 2.652691 2.996088 9.502526 -8.793317 1.400802 21.7475 6.490935 2.816607 -22.20017 8.115441 3.269153 -15.61564 11.10794 90.68701 29.5181 -24.38187 -0 0 7.682391 -13.09464 10.56977 6.360471 6.228019 -22.87412 -3.848186 -85.35319 24.21763 9.977795 0 0 -26.4177 6.067341 12.35676 6.263149
1.46082 95.51458 39.47916 -0.04314897 -2.85125 3.379956 5.353949 -25.78839 4.041161 -0 15.74257 -0 -4.949784 -5.030711 -5.943755 -4.573222 14.94256 -11.40769 -0 33.53129 -0 -3.206148 -15.79282 14.35927 -1.507227 -0.4849091 2.842052 2.724765 9.559575 -8.471083 1.572144 21.99036 6.250428 2.777802 -21.15315 7.811855 3.271246 -14.72191 11.06601 90.69157 28.812 -24.16865 -0 0 6.937845 -13.96648 10.74782 6.492792 5.85885 -22.43482 -3.980588 -84.82652 24.18158 8.983598 0 0 -26.02572 4.999793 11.1861 7.504449
1.363871 96.03206 45.27051 0.1934826 -3.994387 3.285853 5.346764 -22.12616 4.390545 -0 17.27095 -0 -3.92983 -4.457296 -6.655816 -4.404311 12.53754 -9.789076 -0 42.527 -0 -5.604305 -13.49366 13.45875 -1.30866 0.02606454 3.18538 2.383257 9.568633 -8.004481 1.769662 22.24932 5.949533 2.734035 -19.91527 7.440297 3.36326 -13.81919 11.02215 90.32901 28.22235 -23.50457 -0 0 6.530626 -14.95461 10.96029 6.740768 5.392081 -21.71153 -4.02285 -84.46516 24.29861 8.266282 0 0 -25.19663 3.562041 9.70873 9.198708
1.270255 97.01542 51.54291 0.4058976 -5.060683 3.075392 5.365153 -17.12947 4.899109 -0 18.22917 -0 -2.844119 -4.749041 -7.204845 -3.948716 8.625071 -8.104836 -0 51.23439 -0 -7.945017 -10.82506 12.91371 -1.103942 0.5581664 3.744808 2.011275 9.54406 -7.403445 1.961907 22.45983 5.586361 2.673114 -18.67063 7.015662 3.514237 -13.2062 11.00875 89.45091 27.8717 -22.21231 -0 0 6.83687 -15.9514 11.22098 7.153007 4.869501 -20.74489 -3.918139 -84.50545 24.53708 8.294554 0 0 -23.86105 1.937192 8.105222 11.12987
1.205742 98.28066 58.1104 0.4935617 -5.747741 2.685332 5.452755 -11.18006 5.431296 -0 17.56681 -0 -2.079141 -6.323449 -7.249047 -3.086959 3.174953 -6.628135 -0 57.15887 -0 -9.556491 -8.235147 12.99353 -0.8961642 0.9529272 4.522388 1.685213 9.539865 -6.745304 2.090273 22.53018 5.193366 2.574034 -17.77547 6.599244 3.613795 -13.33497 11.07306 88.0337 27.81796 -20.22199 -0 0 8.238084 -16.78785 11.51939 7.767195 4.39824 -19.73223 -3.648678 -85.22681 24.74309 9.628874 0 0 -22.09012 0.545313 6.84242 12.77863
1.200353 99.50752 64.72227 0.4144959 -5.92368 2.090505 5.578826 -5.241087 5.721868 -0 15.2015 -0 -1.940793 -8.818728 -6.62522 -1.949056 -2.953715 -5.590104 -0 58.15828 -0 -9.884827 -6.321406 13.70652 -0.7061786 1.061591 5.381634 1.447589 9.637933 -6.144672 2.114912 22.43554 4.834362 2.42289 -17.49443 6.277544 3.496265 -14.43032 11.22725 86.39198 27.84816 -17.77669 -0 0 10.64498 -17.42904 11.79525 8.57707 4.092559 -18.95748 -3.31715 -86.63733 24.65247 12.31346 0 0 -20.12588 -0.1792331 6.40901 13.59527
1.281663 100.4283 71.20182 0.2536395 -5.800847 1.343157 5.622432 0.03897032 5.656195 -0 12.56058 -0 -2.281867 -11.30066 -5.565917 -0.8473159 -8.707782 -4.996049 -0 54.59086 -0 -9.082545 -5.272213 14.79033 -0.5780364 0.9065872 6.156874 1.248099 9.847635 -5.632987 2.061587 22.26266 4.5539 2.236336 -17.69564 6.085859 3.126144 -16.19486 11.41134 84.91122 27.67925 -15.23099 -0 0 13.51726 -18.03155 11.96989 9.534553 3.95425 -18.47419 -3.050155 -88.39901 24.19076 15.71268 0 0 -18.11 -0.2515904 6.765361 13.60205
1.473549 100.9251 77.46358 0.1069373 -5.602981 0.5200602 5.50671 4.743701 5.379798 -0 10.82939 -0 -2.757644 -13.35324 -4.360678 0.04795469 -13.81783 -4.73386 -0 48.21677 -0 -7.675769 -4.852702 16.03788 -0.5438895 0.6149518 6.811049 1.030296 10.09431 -5.163346 1.975867 22.09102 4.352362 2.043897 -18.09989 5.997047 2.630453 -18.2109 11.56377 83.64489 27.31014 -12.70681 -0 0 16.49525 -18.68105 12.01708 10.57669 3.905197 -18.10826 -2.853981 -90.24231 23.53455 19.27638 0 0 -16.00319 -0.01719727 7.515081 13.24244
1.79357 100.9775 83.47178 0.004500767 -5.40499 -0.3227094 5.254234 9.03381 5.05354 -0 10.15135 -0 -3.184396 -15.0214 -3.155859 0.725052 -18.37112 -4.700312 -0 40.49859 -0 -6.039821 -4.797559 17.34547 -0.5951908 0.2776646 7.36825 0.7887545 10.32055 -4.710956 1.882053 21.94332 4.21249 1.863463 -18.55305 5.973943 2.122907 -20.23617 11.66737 82.52378 26.85694 -10.24627 -0 0 19.42923 -19.34613 11.96108 11.63436 3.890739 -17.74517 -2.69121 -92.05279 22.83179 22.74747 0 0 -13.82706 0.2842082 8.377942 12.81881
2.244401 100.6295 89.23391 -0.04709352 -5.251755 -1.144029 4.90191 12.79896 4.773921 -0 10.45652 -0 -3.475395 -16.28263 -2.075112 1.17164 -22.23199 -4.826735 -0 32.69451 -0 -4.457054 -4.943111 18.59039 -0.7120629 -0.04178838 7.821543 0.5386842 10.49364 -4.288623 1.796971 21.83371 4.125076 1.710973 -18.95769 5.992384 1.678463 -22.05404 11.71943 81.56083 26.40262 -7.995531 -0 0 22.09634 -19.9746 11.83142 12.61641 3.883272 -17.35905 -2.551164 -93.68998 22.1924 25.84259 0 0 -11.7256 0.5244087 9.173238 12.49031
2.803907 100.004 94.82267 -0.03588582 -5.255431 -1.9008 4.451831 15.72631 4.578879 -0 11.96465 -0 -3.562353 -16.82801 -1.294112 1.325684 -24.9509 -5.046466 -0 26.22285 -0 -3.242524 -5.191593 19.57657 -0.8782674 -0.2776928 8.115654 0.2841689 10.5973 -3.923871 1.744935 21.79938 4.088739 1.605877 -19.18486 6.036919 1.340971 -23.37317 11.71181 80.89749 25.94358 -6.22564 -0 0 24.10029 -20.57129 11.64395 13.42001 3.859935 -16.96602 -2.468189 -94.91023 21.73886 28.11953 0 0 -9.913323 0.607145 9.722311 12.37651
3.429216 99.30057 100.376 0.05226447 -5.559803 -2.5381 3.8737 17.57792 4.456757 -0 15.08884 -0 -3.402132 -16.2477 -0.9695013 1.125362 -26.09144 -5.293367 -0 22.19233 -0 -2.651218 -5.49458 20.12638 -1.086275 -0.378753 8.190404 0.009490635 10.63282 -3.63078 1.750252 21.88563 4.102501 1.561747 -19.10747 6.098158 1.114936 -23.95099 11.63366 80.70367 25.40784 -5.167214 -0 0 25.0804 -21.20626 11.39788 13.98524 3.800803 -16.58558 -2.49511 -95.49016 21.57434 29.2 0 0 -8.536876 0.468486 9.885622 12.55697
